<mxfile host="app.diagrams.net" agent="Mozilla/5.0 (Windows NT 10.0; Win64; x64) AppleWebKit/537.36 (KHTML, like Gecko) Chrome/127.0.0.0 Safari/537.36" version="24.7.7">
  <diagram name="第 1 页" id="IWbyHbOjIazed-s3DoQH">
    <mxGraphModel dx="2314" dy="1106" grid="1" gridSize="10" guides="1" tooltips="1" connect="1" arrows="1" fold="1" page="1" pageScale="1" pageWidth="827" pageHeight="1169" math="0" shadow="0">
      <root>
        <mxCell id="0" />
        <mxCell id="1" parent="0" />
        <mxCell id="YbeHKfQEykr_amrqOs7m-4" value="" style="edgeStyle=orthogonalEdgeStyle;rounded=0;orthogonalLoop=1;jettySize=auto;html=1;" edge="1" parent="1" source="YbeHKfQEykr_amrqOs7m-1" target="YbeHKfQEykr_amrqOs7m-3">
          <mxGeometry relative="1" as="geometry" />
        </mxCell>
        <mxCell id="YbeHKfQEykr_amrqOs7m-1" value="开始" style="strokeWidth=2;html=1;shape=mxgraph.flowchart.start_1;whiteSpace=wrap;" vertex="1" parent="1">
          <mxGeometry x="70" y="280" width="100" height="60" as="geometry" />
        </mxCell>
        <mxCell id="YbeHKfQEykr_amrqOs7m-2" value="&lt;font style=&quot;font-size: 24px;&quot;&gt;获取打印数据&lt;/font&gt;" style="text;html=1;align=center;verticalAlign=middle;resizable=0;points=[];autosize=1;strokeColor=none;fillColor=none;" vertex="1" parent="1">
          <mxGeometry x="329" y="162" width="170" height="40" as="geometry" />
        </mxCell>
        <mxCell id="YbeHKfQEykr_amrqOs7m-6" value="" style="edgeStyle=orthogonalEdgeStyle;rounded=0;orthogonalLoop=1;jettySize=auto;html=1;" edge="1" parent="1" source="YbeHKfQEykr_amrqOs7m-3" target="YbeHKfQEykr_amrqOs7m-5">
          <mxGeometry relative="1" as="geometry" />
        </mxCell>
        <mxCell id="YbeHKfQEykr_amrqOs7m-3" value="根据订单号查询订单信息" style="whiteSpace=wrap;html=1;strokeWidth=2;" vertex="1" parent="1">
          <mxGeometry x="240" y="280" width="120" height="60" as="geometry" />
        </mxCell>
        <mxCell id="YbeHKfQEykr_amrqOs7m-10" style="edgeStyle=orthogonalEdgeStyle;rounded=0;orthogonalLoop=1;jettySize=auto;html=1;entryX=1;entryY=0.5;entryDx=0;entryDy=0;" edge="1" parent="1" source="YbeHKfQEykr_amrqOs7m-5" target="YbeHKfQEykr_amrqOs7m-9">
          <mxGeometry relative="1" as="geometry">
            <mxPoint x="470" y="530" as="targetPoint" />
            <Array as="points">
              <mxPoint x="500" y="440" />
            </Array>
          </mxGeometry>
        </mxCell>
        <mxCell id="YbeHKfQEykr_amrqOs7m-5" value="根据快递单号查询打印数据" style="whiteSpace=wrap;html=1;strokeWidth=2;" vertex="1" parent="1">
          <mxGeometry x="440" y="280" width="120" height="60" as="geometry" />
        </mxCell>
        <mxCell id="YbeHKfQEykr_amrqOs7m-12" value="" style="edgeStyle=orthogonalEdgeStyle;rounded=0;orthogonalLoop=1;jettySize=auto;html=1;" edge="1" parent="1" source="YbeHKfQEykr_amrqOs7m-9" target="YbeHKfQEykr_amrqOs7m-11">
          <mxGeometry relative="1" as="geometry" />
        </mxCell>
        <mxCell id="YbeHKfQEykr_amrqOs7m-9" value="获取原打印数据" style="whiteSpace=wrap;html=1;strokeWidth=2;" vertex="1" parent="1">
          <mxGeometry x="240" y="410" width="120" height="60" as="geometry" />
        </mxCell>
        <mxCell id="YbeHKfQEykr_amrqOs7m-14" value="" style="edgeStyle=orthogonalEdgeStyle;rounded=0;orthogonalLoop=1;jettySize=auto;html=1;" edge="1" parent="1" source="YbeHKfQEykr_amrqOs7m-11" target="YbeHKfQEykr_amrqOs7m-13">
          <mxGeometry relative="1" as="geometry" />
        </mxCell>
        <mxCell id="YbeHKfQEykr_amrqOs7m-11" value="查询默认收寄件地址" style="whiteSpace=wrap;html=1;strokeWidth=2;" vertex="1" parent="1">
          <mxGeometry x="240" y="550" width="120" height="60" as="geometry" />
        </mxCell>
        <mxCell id="YbeHKfQEykr_amrqOs7m-16" style="edgeStyle=orthogonalEdgeStyle;rounded=0;orthogonalLoop=1;jettySize=auto;html=1;entryX=1;entryY=0.5;entryDx=0;entryDy=0;" edge="1" parent="1" source="YbeHKfQEykr_amrqOs7m-13" target="YbeHKfQEykr_amrqOs7m-15">
          <mxGeometry relative="1" as="geometry">
            <mxPoint x="690" y="800" as="targetPoint" />
            <Array as="points">
              <mxPoint x="720" y="700" />
            </Array>
          </mxGeometry>
        </mxCell>
        <mxCell id="YbeHKfQEykr_amrqOs7m-13" value="查询店铺默认地址和用户默认收件地址" style="whiteSpace=wrap;html=1;strokeWidth=2;" vertex="1" parent="1">
          <mxGeometry x="660" y="550" width="120" height="60" as="geometry" />
        </mxCell>
        <mxCell id="YbeHKfQEykr_amrqOs7m-18" value="" style="edgeStyle=orthogonalEdgeStyle;rounded=0;orthogonalLoop=1;jettySize=auto;html=1;" edge="1" parent="1" source="YbeHKfQEykr_amrqOs7m-15" target="YbeHKfQEykr_amrqOs7m-17">
          <mxGeometry relative="1" as="geometry" />
        </mxCell>
        <mxCell id="YbeHKfQEykr_amrqOs7m-15" value="替换面单中寄件地址" style="whiteSpace=wrap;html=1;strokeWidth=2;fillColor=#FF9933;" vertex="1" parent="1">
          <mxGeometry x="240" y="670" width="120" height="60" as="geometry" />
        </mxCell>
        <mxCell id="YbeHKfQEykr_amrqOs7m-20" value="" style="edgeStyle=orthogonalEdgeStyle;rounded=0;orthogonalLoop=1;jettySize=auto;html=1;" edge="1" parent="1" source="YbeHKfQEykr_amrqOs7m-17">
          <mxGeometry relative="1" as="geometry">
            <mxPoint x="300" y="950" as="targetPoint" />
          </mxGeometry>
        </mxCell>
        <mxCell id="YbeHKfQEykr_amrqOs7m-17" value="查询用户快递 模板配置" style="whiteSpace=wrap;html=1;strokeWidth=2;fillColor=#FF9933;" vertex="1" parent="1">
          <mxGeometry x="240" y="810" width="120" height="60" as="geometry" />
        </mxCell>
        <mxCell id="YbeHKfQEykr_amrqOs7m-24" value="" style="edgeStyle=orthogonalEdgeStyle;rounded=0;orthogonalLoop=1;jettySize=auto;html=1;" edge="1" parent="1" source="YbeHKfQEykr_amrqOs7m-19" target="YbeHKfQEykr_amrqOs7m-21">
          <mxGeometry relative="1" as="geometry" />
        </mxCell>
        <mxCell id="YbeHKfQEykr_amrqOs7m-19" value="解析模板数据并组装自定义区域数据" style="whiteSpace=wrap;html=1;strokeWidth=2;fillColor=#FF9933;" vertex="1" parent="1">
          <mxGeometry x="240" y="950" width="120" height="60" as="geometry" />
        </mxCell>
        <mxCell id="YbeHKfQEykr_amrqOs7m-21" value="结束" style="rounded=1;whiteSpace=wrap;html=1;strokeWidth=2;" vertex="1" parent="1">
          <mxGeometry x="70" y="950" width="120" height="60" as="geometry" />
        </mxCell>
        <mxCell id="YbeHKfQEykr_amrqOs7m-25" value="web" style="swimlane;whiteSpace=wrap;html=1;" vertex="1" parent="1">
          <mxGeometry x="3" y="220" width="200" height="850" as="geometry" />
        </mxCell>
        <mxCell id="YbeHKfQEykr_amrqOs7m-26" value="oms-search" style="swimlane;whiteSpace=wrap;html=1;" vertex="1" parent="1">
          <mxGeometry x="214" y="220" width="200" height="850" as="geometry" />
        </mxCell>
        <mxCell id="YbeHKfQEykr_amrqOs7m-27" value="物流中心" style="swimlane;whiteSpace=wrap;html=1;" vertex="1" parent="1">
          <mxGeometry x="423" y="220" width="200" height="850" as="geometry" />
        </mxCell>
        <mxCell id="YbeHKfQEykr_amrqOs7m-28" value="用户中心" style="swimlane;whiteSpace=wrap;html=1;" vertex="1" parent="1">
          <mxGeometry x="640" y="220" width="170" height="850" as="geometry" />
        </mxCell>
        <mxCell id="YbeHKfQEykr_amrqOs7m-29" value="&lt;pre style=&quot;background-color: rgb(43, 43, 43); color: rgb(169, 183, 198); font-family: &amp;quot;JetBrains Mono&amp;quot;, monospace;&quot;&gt;&lt;font style=&quot;font-size: 18px;&quot;&gt;ILogisticsClient.getPrintDataByLogisticsNoPost&lt;/font&gt;&lt;/pre&gt;" style="text;html=1;align=center;verticalAlign=middle;resizable=0;points=[];autosize=1;strokeColor=none;fillColor=none;" vertex="1" parent="1">
          <mxGeometry x="40" y="1090" width="440" height="60" as="geometry" />
        </mxCell>
        <mxCell id="YbeHKfQEykr_amrqOs7m-30" value="根据订单编码批量获取订单打印数据" style="text;html=1;align=center;verticalAlign=middle;resizable=0;points=[];autosize=1;strokeColor=none;fillColor=none;" vertex="1" parent="1">
          <mxGeometry x="525" y="1105" width="220" height="30" as="geometry" />
        </mxCell>
        <mxCell id="YbeHKfQEykr_amrqOs7m-31" value="&lt;pre style=&quot;background-color: rgb(43, 43, 43); color: rgb(169, 183, 198); font-family: &amp;quot;JetBrains Mono&amp;quot;, monospace;&quot;&gt;&lt;font style=&quot;font-size: 18px;&quot;&gt;IUserClient.getUserAddressByRemoteUuid&lt;/font&gt;&lt;/pre&gt;" style="text;html=1;align=center;verticalAlign=middle;resizable=0;points=[];autosize=1;strokeColor=none;fillColor=none;" vertex="1" parent="1">
          <mxGeometry x="40" y="1150" width="370" height="60" as="geometry" />
        </mxCell>
        <mxCell id="YbeHKfQEykr_amrqOs7m-32" value="查用户的默认寄件地址" style="text;html=1;align=center;verticalAlign=middle;resizable=0;points=[];autosize=1;strokeColor=none;fillColor=none;" vertex="1" parent="1">
          <mxGeometry x="560" y="1169" width="140" height="30" as="geometry" />
        </mxCell>
      </root>
    </mxGraphModel>
  </diagram>
</mxfile>
